<svg width="106" height="37" viewBox="0 0 106 37" fill="none" xmlns="http://www.w3.org/2000/svg">
<path d="M1.06667 30V6.186H0.268672L0.856672 0.599998H8.54267C10.6987 0.599998 12.2387 1.076 13.1627 2.028C14.1147 2.952 14.5907 4.478 14.5907 6.606V16.182C14.5907 18.338 14.1287 19.878 13.2047 20.802L15.8087 30H10.0967L7.91267 22.188H6.77867V30H1.06667ZM8.66867 6.186H6.77867V16.602H8.66867C8.80867 16.602 8.87867 16.532 8.87867 16.392V6.396C8.87867 6.256 8.80867 6.186 8.66867 6.186ZM17.762 7.32L18.182 1.734H23.474V7.32H17.762ZM17.762 30V14.586H17.09L17.51 9H23.474V30H17.762ZM25.1701 22.02L30.8821 22.44V24.204C30.8821 24.344 30.9521 24.414 31.0921 24.414H33.6121C33.7521 24.414 33.8221 24.344 33.8221 24.204V22.944L27.5221 20.634C27.0741 20.494 26.5701 20.2 26.0101 19.752C25.4501 19.304 25.1701 18.604 25.1701 17.652V12.738C25.1701 11.534 25.5341 10.582 26.2621 9.882C26.9901 9.182 27.9421 8.832 29.1181 8.832H33.4861C35.6421 8.832 37.1821 9.294 38.1061 10.218C39.0581 11.142 39.5341 12.682 39.5341 14.838V16.812L33.8221 16.392V14.628C33.8221 14.488 33.7521 14.418 33.6121 14.418H31.0921C30.9521 14.418 30.8821 14.488 30.8821 14.628V15.846L37.1821 18.156C37.6301 18.296 38.1341 18.59 38.6941 19.038C39.2541 19.486 39.5341 20.186 39.5341 21.138V26.094C39.5341 27.27 39.1701 28.222 38.4421 28.95C37.7141 29.65 36.7621 30 35.5861 30H31.2181C29.0621 30 27.5081 29.538 26.5561 28.614C25.6321 27.662 25.1701 26.122 25.1701 23.994V22.02ZM50.5732 24.414V30H46.4572C45.2812 30 44.3292 29.65 43.6012 28.95C42.8732 28.222 42.5092 27.27 42.5092 26.094V14.166H40.7872L41.2072 9H42.5092V6.186H41.6272L42.0472 0.599998H48.1792V9H50.1532L49.7332 14.166H48.1792V24.414H50.5732ZM60.0622 14.796C60.0622 14.656 59.9922 14.586 59.8522 14.586H57.7522C57.6122 14.586 57.5422 14.656 57.5422 14.796V24.54C57.5422 24.68 57.6122 24.75 57.7522 24.75H59.8522C59.9922 24.75 60.0622 24.68 60.0622 24.54V14.796ZM51.8302 24.33V15.006C51.8302 12.85 52.2922 11.31 53.2162 10.386C54.1682 9.462 55.7222 9 57.8782 9H59.7262C61.8822 9 63.4222 9.462 64.3462 10.386C65.2982 11.31 65.7742 12.85 65.7742 15.006V24.33C65.7742 26.458 65.2982 27.998 64.3462 28.95C63.4222 29.874 61.8822 30.336 59.7262 30.336H57.8782C55.7222 30.336 54.1682 29.874 53.2162 28.95C52.2922 28.026 51.8302 26.486 51.8302 24.33ZM67.9241 30V6.186H67.2521L67.6721 0.599998H73.6361V24.414H74.4761L74.8961 30H67.9241ZM84.1794 14.796C84.1794 14.656 84.1094 14.586 83.9694 14.586H81.8694C81.7294 14.586 81.6594 14.656 81.6594 14.796V24.54C81.6594 24.68 81.7294 24.75 81.8694 24.75H83.9694C84.1094 24.75 84.1794 24.68 84.1794 24.54V14.796ZM75.9474 24.33V15.006C75.9474 12.85 76.4094 11.31 77.3334 10.386C78.2854 9.462 79.8394 9 81.9954 9H83.8434C85.9994 9 87.5394 9.462 88.4634 10.386C89.4154 11.31 89.8914 12.85 89.8914 15.006V24.33C89.8914 26.458 89.4154 27.998 88.4634 28.95C87.5394 29.874 85.9994 30.336 83.8434 30.336H81.9954C79.8394 30.336 78.2854 29.874 77.3334 28.95C76.4094 28.026 75.9474 26.486 75.9474 24.33ZM97.2864 30.546V31.428C97.2864 31.568 97.3564 31.638 97.4964 31.638H99.5964C99.7364 31.638 99.8064 31.568 99.8064 31.428V28.404L98.7144 30H97.6224C95.4664 30 93.9124 29.538 92.9604 28.614C92.0364 27.662 91.5744 26.122 91.5744 23.994V15.006C91.5744 12.85 92.0224 11.31 92.9184 10.386C93.8424 9.462 95.3544 9 97.4544 9H97.8324C98.5604 9 99.2184 9.126 99.8064 9.378V9H105.518V30.378C105.518 32.506 105.042 34.032 104.09 34.956C103.166 35.908 101.626 36.384 99.4704 36.384H97.6224C95.5504 36.384 94.0244 35.908 93.0444 34.956C92.0644 34.004 91.5744 32.548 91.5744 30.588V30.546H97.2864ZM97.4964 14.586C97.3564 14.586 97.2864 14.656 97.2864 14.796V24.204C97.2864 24.344 97.3564 24.414 97.4964 24.414H99.8064V14.586H97.4964Z" fill="#FD8130"/>
</svg>
