<svg width="98" height="31" viewBox="0 0 98 31" fill="none" xmlns="http://www.w3.org/2000/svg">
<path d="M0.804016 30V6.186H0.00601568L0.594016 0.599998H12.606L12.27 6.186H6.51602V12.486H11.682L11.346 18.072H6.51602V30H0.804016ZM22.1013 14.796C22.1013 14.656 22.0313 14.586 21.8913 14.586H19.7913C19.6513 14.586 19.5813 14.656 19.5813 14.796V24.54C19.5813 24.68 19.6513 24.75 19.7913 24.75H21.8913C22.0313 24.75 22.1013 24.68 22.1013 24.54V14.796ZM13.8693 24.33V15.006C13.8693 12.85 14.3313 11.31 15.2553 10.386C16.2073 9.462 17.7613 9 19.9173 9H21.7653C23.9213 9 25.4613 9.462 26.3853 10.386C27.3373 11.31 27.8133 12.85 27.8133 15.006V24.33C27.8133 26.458 27.3373 27.998 26.3853 28.95C25.4613 29.874 23.9213 30.336 21.7653 30.336H19.9173C17.7613 30.336 16.2073 29.874 15.2553 28.95C14.3313 28.026 13.8693 26.486 13.8693 24.33ZM30.1213 30V14.586H29.2813L29.7013 9H35.8333V11.394L37.3453 9H40.7473V15.426H35.8333V30H30.1213ZM43.0413 30V14.586H42.2013L42.6213 9H48.7533V11.226L50.2653 9H50.9373C53.0933 9 54.6333 9.462 55.5573 10.386C56.5093 11.31 56.9853 12.85 56.9853 15.006V24.414H57.8253L57.4053 30H51.2733V14.796C51.2733 14.656 51.2033 14.586 51.0633 14.586H48.7533V30H43.0413ZM65.1575 30C63.0015 30 61.4475 29.538 60.4955 28.614C59.5715 27.662 59.1095 26.122 59.1095 23.994V15.006C59.1095 12.85 59.5575 11.31 60.4535 10.386C61.3775 9.462 62.8895 9 64.9895 9H65.3675C66.0955 9 66.7535 9.126 67.3415 9.378V9H73.0535V24.414H73.4735L73.8935 30H67.3415V27.774L65.8295 30H65.1575ZM65.0315 14.586C64.8915 14.586 64.8215 14.656 64.8215 14.796V24.204C64.8215 24.344 64.8915 24.414 65.0315 24.414H67.3415V14.586H65.0315ZM75.8186 30V6.186H75.1466L75.5666 0.599998H81.5306V24.414H82.3706L82.7906 30H75.8186ZM84.047 24.33V15.006C84.047 12.85 84.509 11.31 85.433 10.386C86.385 9.462 87.939 9 90.095 9H91.943C94.099 9 95.639 9.462 96.563 10.386C97.515 11.31 97.991 12.85 97.991 15.006V22.272H89.759V24.54C89.759 24.68 89.829 24.75 89.969 24.75H92.069C92.209 24.75 92.279 24.68 92.279 24.54V23.154H97.991V24.33C97.991 26.458 97.515 27.998 96.563 28.95C95.639 29.874 94.099 30.336 91.943 30.336H90.095C87.939 30.336 86.385 29.874 85.433 28.95C84.509 28.026 84.047 26.486 84.047 24.33ZM92.279 14.796C92.279 14.656 92.209 14.586 92.069 14.586H89.969C89.829 14.586 89.759 14.656 89.759 14.796V17.526H92.279V14.796Z" fill="#FD8130"/>
</svg>
